# xmcd
# 
# Track frame offsets:
#     150
#     19625
#     29742
#     57802
#     76277
#     97225
#     117910
#     128660
#     141220
#     161912
# 
# Disc length: 2544
# 
# Revision: 5
# Processed by: cddbd v1.5.2PL0 Copyright (c) Steve Scherf et al.
# Submitted via: fre:ac v1.0.27
# 
DISCID=8609ee0a
DTITLE=John Lee Hooker - Boom Boom
DYEAR=1992
DGENRE=Blues
TTITLE0=Boom Boom
TTITLE1=I'm Bad Like Jesse James
TTITLE2=Same Old Blues Again
TTITLE3=Sugar Mama
TTITLE4=Trick Bag (Shoppin' For My Tombstone)
TTITLE5=Boogie At Russian Hill
TTITLE6=Hittin' The Bottle Again
TTITLE7=Bottle Up And Go
TTITLE8=Thought I Heard
TTITLE9=I Ain't Gonna Suffer No More
EXTD=YEAR: 1992
EXTT0=
EXTT1=
EXTT2=
EXTT3=
EXTT4=
EXTT5=
EXTT6=
EXTT7=
EXTT8=
EXTT9=
PLAYORDER=
